<?xml version="1.0" encoding="utf-8"?>
<!-- Generator: Adobe Illustrator 20.0.0, SVG Export Plug-In . SVG Version: 6.00 Build 0)  -->
<svg version="1.1" id="Capa_1" xmlns="http://www.w3.org/2000/svg" xmlns:xlink="http://www.w3.org/1999/xlink" x="0px" y="0px"
	 viewBox="0 0 184.9 198.7" style="enable-background:new 0 0 184.9 198.7;" xml:space="preserve">
<style type="text/css">
	.st0{clip-path:url(#SVGID_2_);}
	.st1{opacity:0.7;clip-path:url(#SVGID_4_);}
	.st2{clip-path:url(#SVGID_6_);fill:#1D1D1B;}
	.st3{fill:#FFFFFF;}
	.st4{font-family:'HelveticaNeue';}
	.st5{font-size:19px;}
	.st6{clip-path:url(#SVGID_8_);fill:#FFFFFF;}
</style>
<g>
	<defs>
		<rect id="SVGID_1_" x="-5.6" y="7" width="190.5" height="176"/>
	</defs>
	<clipPath id="SVGID_2_">
		<use xlink:href="#SVGID_1_"  style="overflow:visible;"/>
	</clipPath>
	<g class="st0">
		<defs>
			<rect id="SVGID_3_" x="-5.6" y="7" width="190.5" height="176"/>
		</defs>
		<clipPath id="SVGID_4_">
			<use xlink:href="#SVGID_3_"  style="overflow:visible;"/>
		</clipPath>
		<g class="st1">
			<g>
				<defs>
					<rect id="SVGID_5_" x="-7.3" width="194" height="184"/>
				</defs>
				<clipPath id="SVGID_6_">
					<use xlink:href="#SVGID_5_"  style="overflow:visible;"/>
				</clipPath>
				<path class="st2" d="M89.7,183c48.6,0,88-39.4,88-88s-39.4-88-88-88s-88,39.4-88,88S41.1,183,89.7,183"/>
			</g>
		</g>
	</g>
	<g class="st0">
		<text transform="matrix(1 0 0 1 36.5325 129.541)" class="st3 st4 st5">Click to next </text>
	</g>
	<g class="st0">
		<defs>
			<rect id="SVGID_7_" x="70.6" y="55.5" width="38.2" height="48.1"/>
		</defs>
		<clipPath id="SVGID_8_">
			<use xlink:href="#SVGID_7_"  style="overflow:visible;"/>
		</clipPath>
		<path class="st6" d="M83.9,85.4c0,0,0.2-0.2,0.4-0.3c0.3-0.1,0.5-0.1,0.5-0.1s0-0.3,0.1-0.6c0.2-0.4,0.4-1.1,0.6-2
			c0.1-0.7,0.2-1.5,0.2-2.4c0-1,0.2-2.2,0-3.3c-0.3-1.5-0.7-2.6-1.2-4c-0.4-1-0.9-2.3-1.2-3.3c-0.6-2-1.1-3.8-1-5
			c0.1-0.8,0.6-1.3,1-1.4c1.7-0.5,2.3,1.6,3.3,3.5c0.5,1,1.3,2.1,1.7,2.9c0.5,0.9,0.6,1.5,0.6,1.5s1-1.2,1.8-1.8
			c0.4-0.3,0.8-0.8,1.2-1c0.4-0.2,1.6-0.2,2.1,0.4c1,1.1,1.5,3.4,1.5,3.4s0.9-0.1,1.5,0.7c0.6,0.8,0.8,1.2,1.4,2.8
			c0,0,0.9-0.5,1.8,0.3c0.7,0.7,1.1,2.1,1.6,3.5c0.4,1,1,1.5,1,3.1c0,1.8,0.2,3.9,0.3,6c0.1,1.3,0,2.6,0.2,3.8
			c0.2,1.2,0,0.6,1.3,3.1c0.2,0.4,0.3,1.4-0.2,2.1c-2.2,3.2-10.5,7.4-13.4,3.1c-0.7-1-1.1-2.2-1.7-2.9c-1.1-1.1-2.7-1.1-4-2.4
			c-2.4-2.2-4.9-3.9-5.5-5.2c-0.1-0.3-0.3-1.3-0.6-2.3c-0.2-0.7-0.6-1.4-0.7-2c-0.4-1.7-0.8-2.2-0.8-3c0-0.6,0.5-1.7,0.3-2.7
			c-0.1-0.4-0.3-1.1-0.4-1.7c-0.1-0.9,0.1-1.8,0.9-1.9c0.6-0.1,1.2,0.1,1.9,0.7c0.8,0.8,1.6,2,1.9,2.9c0.3,0.9,0.1,1.7,0.1,1.7
			s0.2,0.2,0.4,0.8c0.1,0.2,0.2,0.7,0.2,0.9c0.2,0.6,0.4,1,0.5,1.3c0.1,0.3,0,0.4,0,0.4L83.9,85.4z"/>
		<path class="st6" d="M87.9,64.6c0,2.3-1.8,4.1-4.1,4.1c-2.3,0-4.1-1.9-4.1-4.1c0-2.3,1.8-4.1,4.1-4.1C86,60.5,87.9,62.3,87.9,64.6
			 M83.8,61.3c-1.8,0-3.2,1.5-3.2,3.3c0,1.8,1.5,3.3,3.2,3.3c1.8,0,3.2-1.5,3.2-3.3C87,62.8,85.6,61.3,83.8,61.3"/>
	</g>
</g>
</svg>
